<mxfile host="app.diagrams.net" modified="2024-03-07T12:33:35.316Z" agent="Mozilla/5.0 (Windows NT 10.0; Win64; x64) AppleWebKit/537.36 (KHTML, like Gecko) Chrome/122.0.0.0 Safari/537.36" etag="qdz0jQ9bubtbCRnyVih7" version="24.0.2" type="github">
  <diagram name="Trang-1" id="0WlVKCxT_uHPJQK3T4cF">
    <mxGraphModel dx="1434" dy="772" grid="1" gridSize="10" guides="1" tooltips="1" connect="1" arrows="1" fold="1" page="1" pageScale="1" pageWidth="827" pageHeight="1169" math="0" shadow="0">
      <root>
        <mxCell id="0" />
        <mxCell id="1" parent="0" />
        <mxCell id="JwrhD3088aX3PZUR-8dy-5" value="Pool" style="swimlane;childLayout=stackLayout;resizeParent=1;resizeParentMax=0;startSize=20;horizontal=0;horizontalStack=1;" parent="1" vertex="1">
          <mxGeometry x="20" y="120" width="780" height="700" as="geometry" />
        </mxCell>
        <mxCell id="JwrhD3088aX3PZUR-8dy-6" value="Lane 1" style="swimlane;startSize=20;" parent="JwrhD3088aX3PZUR-8dy-5" vertex="1">
          <mxGeometry x="20" width="240" height="700" as="geometry" />
        </mxCell>
        <mxCell id="JwrhD3088aX3PZUR-8dy-1" value="" style="ellipse;html=1;shape=endState;fillColor=#000000;strokeColor=none;" parent="JwrhD3088aX3PZUR-8dy-6" vertex="1">
          <mxGeometry x="16" y="40" width="30" height="30" as="geometry" />
        </mxCell>
        <mxCell id="JwrhD3088aX3PZUR-8dy-2" value="" style="ellipse;html=1;shape=endState;fillColor=#000000;strokeColor=#ff0000;" parent="JwrhD3088aX3PZUR-8dy-6" vertex="1">
          <mxGeometry x="16" y="640" width="30" height="30" as="geometry" />
        </mxCell>
        <mxCell id="JwrhD3088aX3PZUR-8dy-7" value="Lane 2" style="swimlane;startSize=20;" parent="JwrhD3088aX3PZUR-8dy-5" vertex="1">
          <mxGeometry x="260" width="280" height="700" as="geometry" />
        </mxCell>
        <mxCell id="JwrhD3088aX3PZUR-8dy-8" value="Lane 3" style="swimlane;startSize=20;" parent="JwrhD3088aX3PZUR-8dy-5" vertex="1">
          <mxGeometry x="540" width="240" height="700" as="geometry" />
        </mxCell>
      </root>
    </mxGraphModel>
  </diagram>
</mxfile>
